<svg xmlns="http://www.w3.org/2000/svg" viewBox="0 0 24 24">
  <title>icons</title>
  <g id="container">
    <rect id="box" width="24" height="24" style="fill: none"/>
  </g>
  <g id="folder">
    <rect id="silver" x="2" y="4" width="20" height="16" rx="2" ry="2" transform="translate(24 24) rotate(-180)" style="fill: #eee"/>
    <path id="blue" d="M22,10v8a2,2,0,0,1-2,2H4a2,2,0,0,1-2-2V6A2,2,0,0,1,4,4H9a2,2,0,0,1,1.6.8l1.8,2.4A2,2,0,0,0,14,8h6A2,2,0,0,1,22,10Z" style="fill: #72d0f9"/>
    <path d="M20,19H4a2,2,0,0,1-2-2v1a2,2,0,0,0,2,2H20a2,2,0,0,0,2-2V17A2,2,0,0,1,20,19Z" style="opacity: 0.15"/>
  </g>
  <g id="folder-solid">
    <rect id="trans" x="2" y="4" width="20" height="16" rx="2" ry="2" transform="translate(24 24) rotate(-180)" style="opacity: 0.30000000000000004"/>
    <path id="solid" d="M22,10v8a2,2,0,0,1-2,2H4a2,2,0,0,1-2-2V6A2,2,0,0,1,4,4H9a2,2,0,0,1,1.6.8l1.8,2.4A2,2,0,0,0,14,8h6A2,2,0,0,1,22,10Z"/>
  </g>
  <g id="folder-line">
    <g id="line" style="opacity: 0.5">
      <path d="M20,5a1.00114,1.00114,0,0,1,1,1V18a1.00114,1.00114,0,0,1-1,1H4a1.00114,1.00114,0,0,1-1-1V6A1.00113,1.00113,0,0,1,4,5H20m0-1H4A2,2,0,0,0,2,6V18a2,2,0,0,0,2,2H20a2,2,0,0,0,2-2V6a2,2,0,0,0-2-2Z"/>
    </g>
    <g id="line-2" data-name="line">
      <path d="M9,5a1.00478,1.00478,0,0,1,.8.4l1.8,2.4A3.01436,3.01436,0,0,0,14,9h6a1.00114,1.00114,0,0,1,1,1v8a1.00114,1.00114,0,0,1-1,1H4a1.00114,1.00114,0,0,1-1-1V6A1.00113,1.00113,0,0,1,4,5H9M9,4H4A2,2,0,0,0,2,6V18a2,2,0,0,0,2,2H20a2,2,0,0,0,2-2V10a2,2,0,0,0-2-2H14a2,2,0,0,1-1.6-.8L10.6,4.8A2,2,0,0,0,9,4Z"/>
    </g>
  </g>
  <g id="page">
    <rect x="4" y="2" width="16" height="20" rx="2" ry="2" style="fill: #eee"/>
    <path d="M18,21H6a2,2,0,0,1-2-2v1a2,2,0,0,0,2,2H18a2,2,0,0,0,2-2V19A2,2,0,0,1,18,21Z" style="fill: #ddd"/>
  </g>
  <g id="page-solid">
    <rect x="4" y="2" width="16" height="20" rx="2" ry="2"/>
  </g>
  <g id="page-line">
    <path d="M18,3a1.00114,1.00114,0,0,1,1,1V20a1.00114,1.00114,0,0,1-1,1H6a1.00114,1.00114,0,0,1-1-1V4A1.00113,1.00113,0,0,1,6,3H18m0-1H6A2,2,0,0,0,4,4V20a2,2,0,0,0,2,2H18a2,2,0,0,0,2-2V4a2,2,0,0,0-2-2Z"/>
  </g>
  <g id="add">
    <circle cx="11.5" cy="11.5" r="9.5" style="fill: #eee"/>
    <path d="M11.5,20a9.49213,9.49213,0,0,1-9.47473-9C2.0166,11.16663,2,11.33118,2,11.5a9.5,9.5,0,0,0,19,0c0-.16882-.0166-.33337-.02527-.5A9.49213,9.49213,0,0,1,11.5,20Z" style="fill: #ddd"/>
    <rect x="11" y="7" width="1" height="9" rx="0.5" ry="0.5" style="fill: #999"/>
    <rect x="11" y="7" width="1" height="9" rx="0.5" ry="0.5" transform="translate(0 23) rotate(-90)" style="fill: #999"/>
  </g>
  <g id="add-solid">
    <path d="M11.5,2A9.5,9.5,0,1,0,21,11.5,9.5,9.5,0,0,0,11.5,2Zm4,10H12v3.5a.5.5,0,0,1-1,0V12H7.5a.5.5,0,0,1,0-1H11V7.5a.5.5,0,0,1,1,0V11h3.5a.5.5,0,0,1,0,1Z"/>
  </g>
  <g id="add-line">
    <path d="M11.5,3A8.5,8.5,0,1,1,3,11.5,8.50962,8.50962,0,0,1,11.5,3m0-1A9.5,9.5,0,1,0,21,11.5,9.5,9.5,0,0,0,11.5,2Z"/>
    <path d="M11.5,7a.50147.50147,0,0,0-.5.5v8a.5.5,0,0,0,1,0v-8a.50147.50147,0,0,0-.5-.5Z"/>
    <path d="M15.5,11h-8a.5.5,0,0,0,0,1h8a.5.5,0,0,0,0-1Z"/>
  </g>
  <g id="video">
    <rect x="4" y="2" width="16" height="20" rx="2" ry="2" transform="translate(0 24) rotate(-90)" style="fill: #555"/>
    <path d="M20,19H4a2,2,0,0,1-2-2v1a2,2,0,0,0,2,2H20a2,2,0,0,0,2-2V17A2,2,0,0,1,20,19Z" style="fill: #444"/>
    <path d="M9,8.809v6.382a.5.5,0,0,0,.72361.44721l6.382-3.191a.5.5,0,0,0,0-.89443l-6.382-3.191A.5.5,0,0,0,9,8.809Z" style="fill: #fff"/>
  </g>
  <g id="video-solid">
    <path d="M20,4H4A2,2,0,0,0,2,6V18a2,2,0,0,0,2,2H20a2,2,0,0,0,2-2V6A2,2,0,0,0,20,4Zm-3.89441,8.4472-6.382,3.191A.5.5,0,0,1,9,15.191V8.809a.5.5,0,0,1,.72363-.4472l6.382,3.191A.5.5,0,0,1,16.10559,12.4472Z"/>
  </g>
  <g id="video-line">
    <path d="M20,5a1.00114,1.00114,0,0,1,1,1V18a1.00114,1.00114,0,0,1-1,1H4a1.00114,1.00114,0,0,1-1-1V6A1.00113,1.00113,0,0,1,4,5H20m0-1H4A2,2,0,0,0,2,6V18a2,2,0,0,0,2,2H20a2,2,0,0,0,2-2V6a2,2,0,0,0-2-2Z"/>
    <path d="M10,9.618,14.76393,12,10,14.382V9.618M9.50021,8.30837A.50065.50065,0,0,0,9,8.809v6.382a.499.499,0,0,0,.72361.44722l6.382-3.191a.5.5,0,0,0,0-.89442l-6.382-3.191a.49758.49758,0,0,0-.2234-.05343Z"/>
  </g>
  <g id="mail">
    <rect x="2" y="4" width="20" height="16" rx="2" ry="2" style="fill: #eee"/>
    <path d="M20,19H4a2,2,0,0,1-2-2v1a2,2,0,0,0,2,2H20a2,2,0,0,0,2-2V17A2,2,0,0,1,20,19Z" style="fill: #ddd"/>
    <path d="M21.3421,4.52631l-8.09271,6.47418a2,2,0,0,1-2.49878,0L2.6579,4.52631c-.023.021-.05.03748-.07208.05951l8,7.99994a1.9999,1.9999,0,0,0,2.82837,0l8-7.99994C21.39215,4.56378,21.36511,4.5473,21.3421,4.52631Z" style="fill: #a5a5a5"/>
  </g>
  <g id="mail-solid">
    <g>
      <path d="M10.75061,11.00049a2,2,0,0,0,2.49878,0L21.3421,4.52631A1.98585,1.98585,0,0,0,20,4H4a1.98585,1.98585,0,0,0-1.3421.52631Z"/>
      <path d="M13.41418,12.58575a1.9999,1.9999,0,0,1-2.82837,0l-8-7.99994A1.99353,1.99353,0,0,0,2,6V18a2,2,0,0,0,2,2H20a2,2,0,0,0,2-2V6a1.99353,1.99353,0,0,0-.58582-1.41418Z"/>
    </g>
  </g>
  <g id="mail-line">
    <path d="M20,5a1.00114,1.00114,0,0,1,1,1V18a1.00114,1.00114,0,0,1-1,1H4a1.00114,1.00114,0,0,1-1-1V6A1.00113,1.00113,0,0,1,4,5H20m0-1H4A2,2,0,0,0,2,6V18a2,2,0,0,0,2,2H20a2,2,0,0,0,2-2V6a2,2,0,0,0-2-2Z"/>
    <path d="M21.3421,4.52631l-8.09271,6.47418a2,2,0,0,1-2.49878,0L2.6579,4.52631c-.023.021-.05.03748-.07208.05951l8,7.99994a1.9999,1.9999,0,0,0,2.82837,0l8-7.99994C21.39215,4.56378,21.36511,4.5473,21.3421,4.52631Z"/>
  </g>
</svg>
