<svg xmlns="http://www.w3.org/2000/svg" width="24" height="24" viewBox="0 0 24 24"><title>icons</title><g id="box"><rect width="24" height="24" fill="none"/></g><g id="icon-up"><polygon points="21.646 16.354 12 6.707 2.354 16.354 1.646 15.646 12 5.293 22.354 15.646 21.646 16.354"/></g><g id="icon-right"><polygon points="8.354 22.354 7.646 21.646 17.293 12 7.646 2.354 8.354 1.646 18.707 12 8.354 22.354"/></g><g id="icon-down"><polygon points="12 18.707 1.646 8.354 2.354 7.646 12 17.293 21.646 7.646 22.354 8.354 12 18.707"/></g><g id="icon-left"><polygon points="15.646 22.354 5.293 12 15.646 1.646 16.354 2.354 6.707 12 16.354 21.646 15.646 22.354"/></g><g id="icon-menu"><rect x="2" y="3" width="20" height="1"/><rect x="2" y="11" width="20" height="1"/><rect x="2" y="19" width="20" height="1"/></g><g id="icon-search"><path d="M9.021,1.958a7,7,0,1,1-7,7,7.008,7.008,0,0,1,7-7m0-1a8,8,0,1,0,8,8,8,8,0,0,0-8-8Z" transform="translate(-0.021 0.042)"/><rect x="18.521" y="15.63" width="1" height="6.657" transform="translate(-7.855 19.044) rotate(-45)"/></g><g id="icon-cart"><path d="M6.021,18.958a1,1,0,1,1-1,1,1,1,0,0,1,1-1m0-1a2,2,0,1,0,2,2,2,2,0,0,0-2-2Z" transform="translate(-0.021 0.042)"/><path d="M20.021,18.958a1,1,0,1,1-1,1,1,1,0,0,1,1-1m0-1a2,2,0,1,0,2,2,2,2,0,0,0-2-2Z" transform="translate(-0.021 0.042)"/><polygon points="19.882 15 6.118 15 3.118 4 0 4 0 3 3.882 3 6.882 14 19.118 14 21.846 4 8 4 8 3 23.154 3 19.882 15"/></g><g id="icon-close"><rect x="11.521" y="-0.77" width="1" height="25.456" transform="translate(-4.956 12.044) rotate(-45)"/><rect x="-0.707" y="11.458" width="25.456" height="1" transform="translate(-4.956 12.044) rotate(-45)"/></g></svg>