<svg xmlns="http://www.w3.org/2000/svg" width="23.172" height="21.354" viewBox="0 0 23.172 21.354"><title>icons</title><g id="box"><rect x="2" y="1" width="20" height="20" fill="none"/></g><g id="icon-up"><polygon points="21.646 15.354 12 5.707 2.354 15.354 1.646 14.646 12 4.293 22.354 14.646 21.646 15.354"/></g><g id="icon-right"><polygon points="8.354 21.354 7.646 20.646 17.293 11 7.646 1.354 8.354 0.646 18.707 11 8.354 21.354"/></g><g id="icon-down"><polygon points="12 17.707 1.646 7.354 2.354 6.646 12 16.293 21.646 6.646 22.354 7.354 12 17.707"/></g><g id="icon-left"><polygon points="15.646 21.354 5.293 11 15.646 0.646 16.354 1.354 6.707 11 16.354 20.646 15.646 21.354"/></g><g id="icon-menu"><rect x="2" y="2" width="20" height="1"/><rect x="2" y="10" width="20" height="1"/><rect x="2" y="18" width="20" height="1"/></g><g id="icon-search"><path d="M9.021,1.958a7,7,0,1,1-7,7,7.008,7.008,0,0,1,7-7m0-1a8,8,0,1,0,8,8,8,8,0,0,0-8-8Z" transform="translate(-0.021 -0.958)"/><rect x="18.521" y="15.63" width="1" height="6.657" transform="translate(-7.855 18.044) rotate(-45)"/></g><g id="icon-cart"><path d="M6.021,17.958a1,1,0,1,1-1,1,1,1,0,0,1,1-1m0-1a2,2,0,1,0,2,2,2,2,0,0,0-2-2Z" transform="translate(-0.021 -0.958)"/><path d="M20.021,17.958a1,1,0,1,1-1,1,1,1,0,0,1,1-1m0-1a2,2,0,1,0,2,2,2,2,0,0,0-2-2Z" transform="translate(-0.021 -0.958)"/><polygon points="19.872 13 6.128 13 3.128 3 0 3 0 2 3.872 2 6.872 12 19.128 12 21.828 3 7 3 7 2 23.172 2 19.872 13"/></g><g id="icon-close"><rect x="11.521" y="-0.77" width="1" height="25.456" transform="translate(-4.956 11.044) rotate(-45)"/><rect x="-0.707" y="11.458" width="25.456" height="1" transform="translate(-4.956 11.044) rotate(-45)"/></g></svg>