<svg xmlns="http://www.w3.org/2000/svg" viewBox="0 0 24 24"><title>icons</title><g id="container"><rect id="box" width="24" height="24" fill="none"/></g><g id="folder"><rect id="silver" x="2" y="4" width="20" height="16" rx="2" ry="2" transform="translate(24 24) rotate(-180)" fill="#eee"/><path id="blue" d="M22,10v8a2,2,0,0,1-2,2H4a2,2,0,0,1-2-2V6A2,2,0,0,1,4,4H9a2.1,2.1,0,0,1,1.6.8l1.8,2.4A2.1,2.1,0,0,0,14,8h6A2,2,0,0,1,22,10Z" fill="#72d0f9"/><path d="M20,19H4a2,2,0,0,1-2-2v1a2,2,0,0,0,2,2H20a2,2,0,0,0,2-2V17A2,2,0,0,1,20,19Z" opacity="0.15"/></g><g id="folder-solid"><rect id="trans" x="2" y="4" width="20" height="16" rx="2" ry="2" transform="translate(24 24) rotate(-180)" opacity="0.3"/><path id="solid" d="M22,10v8a2,2,0,0,1-2,2H4a2,2,0,0,1-2-2V6A2,2,0,0,1,4,4H9a2.1,2.1,0,0,1,1.6.8l1.8,2.4A2.1,2.1,0,0,0,14,8h6A2,2,0,0,1,22,10Z"/></g><g id="folder-line"><g id="line" opacity="0.3"><path d="M20,5a.9.9,0,0,1,1,1V18a.9.9,0,0,1-1,1H4a.9.9,0,0,1-1-1V6A.9.9,0,0,1,4,5H20m0-1H4A2,2,0,0,0,2,6V18a2,2,0,0,0,2,2H20a2,2,0,0,0,2-2V6a2,2,0,0,0-2-2Z"/></g><g id="line-2" data-name="line"><path d="M9,5a.9.9,0,0,1,.8.4l1.8,2.4A3,3,0,0,0,14,9h6a.9.9,0,0,1,1,1v8a.9.9,0,0,1-1,1H4a.9.9,0,0,1-1-1V6A.9.9,0,0,1,4,5H9M9,4H4A2,2,0,0,0,2,6V18a2,2,0,0,0,2,2H20a2,2,0,0,0,2-2V10a2,2,0,0,0-2-2H14a2.1,2.1,0,0,1-1.6-.8L10.6,4.8A2.1,2.1,0,0,0,9,4Z"/></g></g><g id="page"><rect x="4" y="2" width="16" height="20" rx="2" ry="2" fill="#eee"/><path d="M18,21H6a2,2,0,0,1-2-2v1a2,2,0,0,0,2,2H18a2,2,0,0,0,2-2V19A2,2,0,0,1,18,21Z" fill="#ddd"/></g><g id="page-solid"><rect x="4" y="2" width="16" height="20" rx="2" ry="2"/></g><g id="page-line"><path d="M18,3a.9.9,0,0,1,1,1V20a.9.9,0,0,1-1,1H6a.9.9,0,0,1-1-1V4A.9.9,0,0,1,6,3H18m0-1H6A2,2,0,0,0,4,4V20a2,2,0,0,0,2,2H18a2,2,0,0,0,2-2V4a2,2,0,0,0-2-2Z"/></g><g id="add"><circle cx="11.5" cy="11.5" r="9.5" fill="#eee"/><path d="M11.5,20A9.5,9.5,0,0,1,2,11v.5A9.6,9.6,0,0,0,11.5,21,9.6,9.6,0,0,0,21,11.5V11A9.5,9.5,0,0,1,11.5,20Z" fill="#ddd"/><rect x="11" y="7" width="1" height="9" rx="0.5" ry="0.5" fill="#999"/><rect x="11" y="7" width="1" height="9" rx="0.5" ry="0.5" transform="translate(0 23) rotate(-90)" fill="#999"/></g><g id="add-solid"><path d="M11.5,2A9.6,9.6,0,0,0,2,11.5,9.6,9.6,0,0,0,11.5,21,9.6,9.6,0,0,0,21,11.5,9.6,9.6,0,0,0,11.5,2Zm4,10H12v3.5a.5.5,0,0,1-1,0V12H7.5a.5.5,0,0,1,0-1H11V7.5a.5.5,0,0,1,1,0V11h3.5a.5.5,0,0,1,0,1Z"/></g><g id="add-line"><path d="M11.5,3A8.5,8.5,0,1,1,3,11.5,8.5,8.5,0,0,1,11.5,3m0-1A9.6,9.6,0,0,0,2,11.5,9.6,9.6,0,0,0,11.5,21,9.6,9.6,0,0,0,21,11.5,9.6,9.6,0,0,0,11.5,2Z"/><path d="M11.5,7a.5.5,0,0,0-.5.5v8a.5.5,0,0,0,1,0v-8a.5.5,0,0,0-.5-.5Z"/><path d="M15.5,11h-8a.5.5,0,0,0,0,1h8a.5.5,0,0,0,0-1Z"/></g><g id="video"><rect x="4" y="2" width="16" height="20" rx="2" ry="2" transform="translate(0 24) rotate(-90)" fill="#555"/><path d="M20,19H4a2,2,0,0,1-2-2v1a2,2,0,0,0,2,2H20a2,2,0,0,0,2-2V17A2,2,0,0,1,20,19Z" fill="#444"/><path d="M9,8.8v6.4a.4.4,0,0,0,.7.4l6.4-3.2a.4.4,0,0,0,0-.8L9.7,8.4A.4.4,0,0,0,9,8.8Z" fill="#fff"/></g><g id="video-solid"><path d="M20,4H4A2,2,0,0,0,2,6V18a2,2,0,0,0,2,2H20a2,2,0,0,0,2-2V6A2,2,0,0,0,20,4Zm-3.9,8.4L9.7,15.6a.4.4,0,0,1-.7-.4V8.8a.4.4,0,0,1,.7-.4l6.4,3.2A.4.4,0,0,1,16.1,12.4Z"/></g><g id="video-line"><path d="M20,5a.9.9,0,0,1,1,1V18a.9.9,0,0,1-1,1H4a.9.9,0,0,1-1-1V6A.9.9,0,0,1,4,5H20m0-1H4A2,2,0,0,0,2,6V18a2,2,0,0,0,2,2H20a2,2,0,0,0,2-2V6a2,2,0,0,0-2-2Z"/><path d="M10,9.6,14.8,12,10,14.4V9.6M9.5,8.3a.5.5,0,0,0-.5.5v6.4a.5.5,0,0,0,.5.5h.2l6.4-3.2a.4.4,0,0,0,0-.8L9.7,8.4Z"/></g></svg>